<svg width="335" height="515" viewBox="0 0 335 515" fill="none" xmlns="http://www.w3.org/2000/svg">
    <path
        d="M24.584 22.2V38.072H37.256C48.072 38.072 48.008 22.2 37.256 22.2H24.584ZM37.256 14.136C59.144 14.136 59.208 45.816 37.256 45.816H24.584V59H16.136V14.2C23.176 14.2 30.216 14.136 37.256 14.136ZM99.13 58.424V59H89.082L76.026 44.024H67.898V59H59.45V14.136C66.554 14.136 73.658 14.2 80.762 14.2C91.322 14.264 96.89 21.304 96.89 29.048C96.89 35.192 94.074 41.4 85.562 43.128L99.13 58.424ZM80.762 22.072H67.898V36.408H80.762C86.138 36.408 88.442 32.824 88.442 29.24C88.442 25.656 86.074 22.072 80.762 22.072ZM123.63 13.304C139.054 13.304 146.734 25.144 146.606 36.856C146.478 48.44 139.374 60.024 123.63 60.024C107.885 60.024 100.59 48.696 100.59 36.92C100.59 25.144 108.142 13.304 123.63 13.304ZM123.63 20.984C113.07 20.984 108.718 29.496 108.91 37.048C109.102 44.408 113.07 52.28 123.63 52.28C134.19 52.28 138.158 44.344 138.286 36.984C138.414 29.432 134.19 20.984 123.63 20.984ZM169.848 14.2C185.208 14.2 192.056 25.144 192.248 36.216C192.44 47.544 185.528 59 169.848 59C164.344 59 157.752 59 152.248 59V14.2C157.752 14.2 164.344 14.2 169.848 14.2ZM160.632 22.2V50.872H169.848C180.024 50.872 184.056 43.448 183.864 36.152C183.672 29.176 179.576 22.2 169.848 22.2H160.632ZM228.736 14.264H237.12V39.928C237.12 53.176 228.992 59.96 217.728 59.96C206.976 59.96 197.824 53.432 197.824 39.928V14.264H206.208V39.928C206.208 47.992 210.816 52.28 217.792 52.28C224.768 52.28 228.736 47.608 228.736 39.928V14.264ZM279.114 47.544L284.874 53.368C280.266 57.912 274.314 60.024 267.85 60.024C251.21 60.024 244.17 48.568 244.106 36.92C244.042 25.208 251.658 13.304 267.85 13.304C273.93 13.304 279.69 15.608 284.298 20.152L278.666 25.592C275.722 22.712 271.754 21.368 267.85 21.368C257.034 21.368 252.362 29.432 252.426 36.92C252.49 44.344 256.778 52.088 267.85 52.088C271.754 52.088 276.17 50.488 279.114 47.544ZM300.595 59V21.88H286.387V14.2C299.315 14.2 310.259 14.2 323.251 14.2V21.88H309.043V59H300.595Z"
        fill="#121212" />
    <path
        d="M38.83 87.6C58.51 87.6 67.284 101.622 67.53 115.808C67.776 130.322 58.92 145 38.83 145C31.778 145 23.332 145 16.28 145V87.6C23.332 87.6 31.778 87.6 38.83 87.6ZM27.022 97.85V134.586H38.83C51.868 134.586 57.034 125.074 56.788 115.726C56.542 106.788 51.294 97.85 38.83 97.85H27.022ZM117.478 134.34V145H74.5103C74.5103 125.894 74.5103 106.706 74.5103 87.6H117.478V98.096H85.2523V111.298H116.33V121.384H85.2523V134.34H117.478ZM171.64 97.03L163.03 101.458C161.062 98.178 155.65 95.062 149.418 95.062C141.382 95.062 137.528 98.424 137.528 102.688C137.528 107.69 143.432 109.084 150.32 109.904C162.292 111.38 173.444 114.496 173.444 128.19C173.444 140.982 162.128 146.476 149.336 146.476C137.61 146.476 128.59 142.868 124.326 132.372L133.346 127.698C135.888 134.012 142.53 136.8 149.5 136.8C156.306 136.8 162.702 134.422 162.702 128.19C162.702 122.778 157.044 120.564 149.418 119.744C137.692 118.35 126.868 115.234 126.868 102.36C126.868 90.552 138.512 85.714 149.09 85.632C158.028 85.632 167.294 88.174 171.64 97.03ZM192.643 145H181.901V87.6H192.643V145ZM252.163 94.734L245.439 101.622C241.585 97.932 235.845 95.882 230.843 95.882C218.543 95.882 211.081 105.23 211.081 117.038C211.081 126.468 216.575 136.226 230.843 136.226C235.353 136.226 239.289 135.242 243.799 131.634V121.466H229.121V111.79H253.721V135.98C248.063 142.458 240.929 146.312 230.843 146.312C209.277 146.312 200.503 132.126 200.503 117.038C200.503 100.884 210.589 85.96 230.843 85.96C238.551 85.96 246.259 88.912 252.163 94.734ZM300.258 123.188V87.518H311.082V145H304.358V145.082L274.182 106.296V145H263.358V87.6H272.132L300.258 123.188Z"
        fill="black" />
    <rect x="3.5" y="3.5" width="328" height="159" stroke="#FF0000" />
    <rect x="328.5" y="0.5" width="6" height="6" fill="#F0F8FF" stroke="#FF0000" />
    <rect x="0.5" y="0.5" width="6" height="6" fill="#F0F8FF" stroke="#FF0000" />
    <rect x="328.5" y="159.5" width="6" height="6" fill="#F0F8FF" stroke="#FF0000" />
    <rect x="0.5" y="159.5" width="6" height="6" fill="#F0F8FF" stroke="#FF0000" />
    <path
        d="M66.2 371.5L41.465 431.255H29.82L5.085 371.5H17.665L35.6 417.825L53.62 371.5H66.2ZM84.301 431H73.166V371.5H84.301V431ZM142.134 381.275L133.209 385.865C131.169 382.465 125.559 379.235 119.099 379.235C110.769 379.235 106.774 382.72 106.774 387.14C106.774 392.325 112.894 393.77 120.034 394.62C132.444 396.15 144.004 399.38 144.004 413.575C144.004 426.835 132.274 432.53 119.014 432.53C106.859 432.53 97.5092 428.79 93.0892 417.91L102.439 413.065C105.074 419.61 111.959 422.5 119.184 422.5C126.239 422.5 132.869 420.035 132.869 413.575C132.869 407.965 127.004 405.67 119.099 404.82C106.944 403.375 95.7242 400.145 95.7242 386.8C95.7242 374.56 107.794 369.545 118.759 369.46C128.024 369.46 137.629 372.095 142.134 381.275ZM193.741 371.585H204.876V405.67C204.876 423.265 194.081 432.275 179.121 432.275C164.841 432.275 152.686 423.605 152.686 405.67V371.585H163.821V405.67C163.821 416.38 169.941 422.075 179.206 422.075C188.471 422.075 193.741 415.87 193.741 405.67V371.585ZM284.585 371.5H295.805V420.63H326.405V431H284.585V371.5Z"
        fill="#121212" />
    <path
        d="M33.035 443.7C54.395 443.7 63.918 458.919 64.185 474.316C64.452 490.069 54.84 506 33.035 506C25.381 506 16.214 506 8.56 506V443.7C16.214 443.7 25.381 443.7 33.035 443.7ZM20.219 454.825V494.697H33.035C47.186 494.697 52.793 484.373 52.526 474.227C52.259 464.526 46.563 454.825 33.035 454.825H20.219ZM173.706 453.935L164.361 458.741C162.225 455.181 156.351 451.799 149.587 451.799C140.865 451.799 136.682 455.448 136.682 460.076C136.682 465.505 143.09 467.018 150.566 467.908C163.56 469.51 175.664 472.892 175.664 487.755C175.664 501.639 163.382 507.602 149.498 507.602C136.771 507.602 126.981 503.686 122.353 492.294L132.143 487.221C134.902 494.074 142.111 497.1 149.676 497.1C157.063 497.1 164.005 494.519 164.005 487.755C164.005 481.881 157.864 479.478 149.587 478.588C136.86 477.075 125.112 473.693 125.112 459.72C125.112 446.904 137.75 441.653 149.231 441.564C158.932 441.564 168.989 444.323 173.706 453.935ZM196.502 506H184.843V443.7H196.502V506ZM261.103 451.443L253.805 458.919C249.622 454.914 243.392 452.689 237.963 452.689C224.613 452.689 216.514 462.835 216.514 475.651C216.514 485.886 222.477 496.477 237.963 496.477C242.858 496.477 247.13 495.409 252.025 491.493V480.457H236.094V469.955H262.794V496.21C256.653 503.241 248.91 507.424 237.963 507.424C214.556 507.424 205.033 492.027 205.033 475.651C205.033 458.118 215.98 441.92 237.963 441.92C246.329 441.92 254.695 445.124 261.103 451.443ZM313.303 482.326V443.611H325.051V506H317.753V506.089L285.001 463.992V506H273.253V443.7H282.776L313.303 482.326Z"
        fill="black" />
    <path
        d="M242.018 377C242.018 377 212.041 431 213.024 431C214.007 431 242.018 411.541 242.018 411.541C242.018 411.541 271.995 431 272.978 431C273.961 431 242.018 377 242.018 377Z"
        stroke="#FF0000" stroke-width="5" />
    <mask id="path-11-inside-1_119_770" fill="white">
        <rect x="71" y="448" width="44" height="11" rx="1" />
    </mask>
    <rect x="71" y="448" width="44" height="11" rx="1" stroke="#FF0000" stroke-width="4"
        mask="url(#path-11-inside-1_119_770)" />
    <mask id="path-12-inside-2_119_770" fill="white">
        <rect x="71" y="471" width="44" height="11" rx="1" />
    </mask>
    <rect x="71" y="471" width="44" height="11" rx="1" stroke="#FF0000" stroke-width="4"
        mask="url(#path-12-inside-2_119_770)" />
    <mask id="path-13-inside-3_119_770" fill="white">
        <rect x="71" y="494" width="44" height="11" rx="1" />
    </mask>
    <rect x="71" y="494" width="44" height="11" rx="1" stroke="#FF0000" stroke-width="4"
        mask="url(#path-13-inside-3_119_770)" />
    <path
        d="M18.679 225H10.891V183.759H40.568V191.252H18.679V202.521H39.388V209.719H18.679V225ZM82.5613 224.469V225H73.2983L61.2623 211.194H53.7693V225H45.9813V183.641C52.5303 183.641 59.0793 183.7 65.6283 183.7C75.3633 183.759 80.4963 190.249 80.4963 197.388C80.4963 203.052 77.9003 208.775 70.0533 210.368L82.5613 224.469ZM65.6283 190.957H53.7693V204.173H65.6283C70.5843 204.173 72.7083 200.869 72.7083 197.565C72.7083 194.261 70.5253 190.957 65.6283 190.957ZM105.147 182.874C119.366 182.874 126.446 193.789 126.328 204.586C126.21 215.265 119.661 225.944 105.147 225.944C90.6327 225.944 83.9067 215.501 83.9067 204.645C83.9067 193.789 90.8687 182.874 105.147 182.874ZM105.147 189.954C95.4117 189.954 91.3997 197.801 91.5767 204.763C91.7537 211.548 95.4117 218.805 105.147 218.805C114.882 218.805 118.54 211.489 118.658 204.704C118.776 197.742 114.882 189.954 105.147 189.954ZM159.2 209.306V183.641H166.988V225H162.15V225.059L140.438 197.152V225H132.65V183.7H138.963L159.2 209.306ZM184.799 225V190.78H171.701V183.7C183.619 183.7 193.708 183.7 205.685 183.7V190.78H192.587V225H184.799ZM241.217 217.33V225H210.301C210.301 211.253 210.301 197.447 210.301 183.7H241.217V191.252H218.03V200.751H240.391V208.008H218.03V217.33H241.217ZM275.644 209.306V183.641H283.432V225H278.594V225.059L256.882 197.152V225H249.094V183.7H255.407L275.644 209.306ZM306.259 183.7C320.419 183.7 326.732 193.789 326.909 203.996C327.086 214.439 320.714 225 306.259 225C301.185 225 295.108 225 290.034 225V183.7C295.108 183.7 301.185 183.7 306.259 183.7ZM297.763 191.075V217.507H306.259C315.64 217.507 319.357 210.663 319.18 203.937C319.003 197.506 315.227 191.075 306.259 191.075H297.763Z"
        fill="#121212" />
    <path
        d="M90.3961 246.5C122.796 246.5 137.241 269.585 137.646 292.94C138.051 316.835 123.471 341 90.3961 341C78.7861 341 64.8811 341 53.2711 341V246.5C64.8811 246.5 78.7861 246.5 90.3961 246.5ZM70.9561 263.375V323.855H90.3961C111.861 323.855 120.366 308.195 119.961 292.805C119.556 278.09 110.916 263.375 90.3961 263.375H70.9561ZM219.878 323.45V341H149.138C149.138 309.545 149.138 277.955 149.138 246.5H219.878V263.78H166.823V285.515H217.988V302.12H166.823V323.45H219.878ZM325.686 246.5L286.401 341.405H267.906L228.621 246.5H248.601L277.086 320.075L305.706 246.5H325.686Z"
        fill="black" />
    <line x1="4.5" y1="341" x2="4.5" y2="184" stroke="#FF0000" />
    <line x1="28.5" y1="341" x2="28.5" y2="240" stroke="#FF0000" />
</svg>