<svg width="861" height="182" viewBox="0 0 861 182" fill="none" xmlns="http://www.w3.org/2000/svg">
<g filter="url(#filter0_bd_24_407)">
<path d="M3.57628e-07 20H26L128.8 162.4L126.8 20H132.8V168H106.8L4 25.6L6 168H3.57628e-07V20ZM151.177 143.6C151.177 138 152.377 132.933 154.777 128.4C157.31 123.867 160.643 119.867 164.777 116.4C169.043 112.933 173.977 109.933 179.577 107.4C185.177 104.867 191.043 102.8 197.177 101.2C203.31 99.4667 209.51 98.2 215.777 97.4C222.177 96.4667 228.243 95.9333 233.977 95.8C233.31 86.4667 230.577 79.8667 225.777 76C220.977 72 215.31 70 208.777 70C205.443 70 202.977 70.6 201.377 71.8C199.91 73 198.91 74.5333 198.377 76.4C197.843 78.2667 197.643 80.4667 197.777 83C197.91 85.4 197.977 87.8 197.977 90.2H175.977C175.977 85.5333 176.977 81.6667 178.977 78.6C180.977 75.5333 183.577 73.0667 186.777 71.2C189.977 69.3333 193.51 68 197.377 67.2C201.243 66.4 205.043 66 208.777 66C210.91 66 213.51 66.2 216.577 66.6C219.777 67 223.11 67.7333 226.577 68.8C230.177 69.8667 233.71 71.2667 237.177 73C240.643 74.6 243.777 76.6667 246.577 79.2C249.51 81.6 251.843 84.5333 253.577 88C255.31 91.4667 256.177 95.4 256.177 99.8V168H234.177V128.2C232.443 133.8 230.11 139.133 227.177 144.2C224.243 149.267 220.643 153.733 216.377 157.6C212.243 161.333 207.443 164.333 201.977 166.6C196.51 168.867 190.443 170 183.777 170C174.177 170 166.31 167.667 160.177 163C154.177 158.2 151.177 151.733 151.177 143.6ZM234.177 99.8C226.177 99.9333 218.51 100.867 211.177 102.6C203.843 104.333 197.31 106.933 191.577 110.4C185.977 113.867 181.51 118.333 178.177 123.8C174.843 129.133 173.177 135.667 173.177 143.4C173.177 147.133 173.577 150.267 174.377 152.8C175.31 155.2 176.51 157.067 177.977 158.4C179.443 159.733 181.11 160.667 182.977 161.2C184.843 161.733 186.71 162 188.577 162C196.443 162 203.243 160.067 208.977 156.2C214.71 152.333 219.443 147.6 223.177 142C226.91 136.267 229.643 130.133 231.377 123.6C233.243 116.933 234.177 110.933 234.177 105.6V99.8ZM377.219 136C374.819 141.067 372.085 145.733 369.019 150C365.952 154.133 362.485 157.733 358.619 160.8C354.752 163.733 350.352 166 345.419 167.6C340.619 169.2 335.085 170 328.819 170C322.285 170 315.752 168.933 309.219 166.8C302.685 164.533 296.819 161.2 291.619 156.8C286.419 152.4 282.219 146.867 279.019 140.2C275.819 133.533 274.219 125.667 274.219 116.6C274.219 109 275.485 102.133 278.019 96C280.685 89.7333 284.219 84.4 288.619 80C293.019 75.6 298.152 72.2 304.019 69.8C310.019 67.2667 316.352 66 323.019 66C329.685 66 335.419 67.0667 340.219 69.2C345.019 71.3333 348.952 74.1333 352.019 77.6C355.085 80.9333 357.285 84.8 358.619 89.2C360.085 93.6 360.819 98.1333 360.819 102.8H340.819C340.819 96.8 340.552 91.7333 340.019 87.6C339.485 83.4667 338.485 80.1333 337.019 77.6C335.685 74.9333 333.885 73 331.619 71.8C329.352 70.6 326.485 70 323.019 70C313.552 70 306.352 74.1333 301.419 82.4C296.619 90.6667 294.219 102.067 294.219 116.6C294.219 132.6 297.352 144.4 303.619 152C309.885 159.6 318.952 163.4 330.819 163.4C336.152 163.4 340.885 162.8 345.019 161.6C349.285 160.267 353.152 158.4 356.619 156C360.085 153.6 363.285 150.6 366.219 147C369.152 143.267 372.019 139 374.819 134.2L377.219 136ZM466.388 168V103.6C466.388 98 465.988 93.4667 465.188 90C464.388 86.4 463.254 83.6 461.788 81.6C460.321 79.4667 458.521 78.0667 456.388 77.4C454.388 76.6 452.054 76.2 449.388 76.2C444.454 76.2 439.854 77.4667 435.588 80C431.454 82.4 427.854 85.3333 424.788 88.8C421.721 92.2667 419.254 95.8667 417.388 99.6C415.521 103.333 414.454 106.467 414.188 109V168H392.188V3.99999H414.188V97.6C415.654 94.6667 417.588 91.4 419.988 87.8C422.521 84.0667 425.521 80.6 428.988 77.4C432.454 74.2 436.388 71.5333 440.788 69.4C445.321 67.1333 450.388 66 455.988 66C459.988 66 463.921 66.6667 467.788 68C471.654 69.2 475.121 71.2667 478.188 74.2C481.254 77 483.721 80.8 485.588 85.6C487.454 90.4 488.388 96.4 488.388 103.6V168H466.388ZM573.958 3.99999V103.4C575.558 98.4667 577.624 93.8 580.158 89.4C582.691 84.8667 585.824 80.8667 589.558 77.4C593.291 73.9333 597.624 71.2 602.558 69.2C607.491 67.0667 613.091 66 619.358 66C628.424 66 635.091 68.0667 639.358 72.2C643.624 76.2 645.758 81.4 645.758 87.8C645.758 92.0667 644.691 95.6 642.558 98.4C640.424 101.2 637.891 103.533 634.958 105.4C632.024 107.133 628.958 108.533 625.758 109.6C622.691 110.667 620.158 111.733 618.158 112.8L661.958 168H635.358L598.958 121.2C603.758 117.867 607.758 114.867 610.958 112.2C614.158 109.533 616.691 106.933 618.558 104.4C620.424 101.733 621.758 99.0667 622.558 96.4C623.358 93.6 623.758 90.5333 623.758 87.2C623.758 81.6 622.424 77.7333 619.758 75.6C617.091 73.3333 613.824 72.2 609.958 72.2C604.624 72.2 599.758 74.0667 595.358 77.8C590.958 81.5333 587.158 86.2667 583.958 92C580.758 97.7333 578.291 104.067 576.558 111C574.824 117.933 573.958 124.533 573.958 130.8V168H551.958V3.99999H573.958ZM771.109 136C766.176 146.267 759.309 154.533 750.509 160.8C741.843 166.933 731.243 170 718.709 170C712.176 170 705.509 169 698.709 167C692.043 165 685.976 161.867 680.509 157.6C675.176 153.333 670.776 147.867 667.309 141.2C663.843 134.4 662.109 126.2 662.109 116.6C662.109 108.6 663.509 101.467 666.309 95.2C669.109 88.8 672.843 83.4667 677.509 79.2C682.176 74.9333 687.576 71.6667 693.709 69.4C699.843 67.1333 706.243 66 712.909 66C719.576 66 725.509 67.0667 730.709 69.2C735.909 71.3333 740.243 74.1333 743.709 77.6C747.309 80.9333 750.043 84.8 751.909 89.2C753.776 93.6 754.709 98.1333 754.709 102.8H684.909C684.643 104.933 684.443 107.133 684.309 109.4C684.176 111.667 684.109 114.067 684.109 116.6C684.109 132.6 687.243 144.4 693.509 152C699.776 159.6 708.843 163.4 720.709 163.4C731.376 163.4 740.643 160.933 748.509 156C756.376 151.067 763.109 143.8 768.709 134.2L771.109 136ZM734.509 98.8C734.109 88.4 732.043 81 728.309 76.6C724.576 72.2 719.443 70 712.909 70C705.576 70 699.643 72.5333 695.109 77.6C690.576 82.5333 687.376 89.6 685.509 98.8H734.509ZM808.438 67.8H844.238V73.8L808.438 72.2V168H786.438V71.8H770.638V67.8H785.838C788.238 67.6667 790.504 67.3333 792.638 66.8C794.904 66.1333 796.904 64.8667 798.638 63C800.371 61.1333 801.771 58.5333 802.838 55.2C803.904 51.8667 804.438 47.4 804.438 41.8H808.438V67.8Z" fill="black"/>
<path d="M506.645 35.2C509.579 33.7333 512.312 31.4667 514.845 28.4C517.379 25.2 519.179 21.7333 520.245 18C521.312 21.7333 523.112 25.2 525.645 28.4C528.179 31.4667 530.912 33.7333 533.845 35.2C530.912 36.5333 528.179 38.8 525.645 42C523.112 45.2 521.312 48.6667 520.245 52.4C519.179 48.6667 517.379 45.2 514.845 42C512.312 38.8 509.579 36.5333 506.645 35.2ZM509.445 168V68H531.445V168H509.445Z" fill="#FF0000"/>
</g>
<defs>
<filter id="filter0_bd_24_407" x="-4" y="-7.62939e-06" width="864.237" height="182" filterUnits="userSpaceOnUse" color-interpolation-filters="sRGB">
<feFlood flood-opacity="0" result="BackgroundImageFix"/>
<feGaussianBlur in="BackgroundImageFix" stdDeviation="2"/>
<feComposite in2="SourceAlpha" operator="in" result="effect1_backgroundBlur_24_407"/>
<feColorMatrix in="SourceAlpha" type="matrix" values="0 0 0 0 0 0 0 0 0 0 0 0 0 0 0 0 0 0 127 0" result="hardAlpha"/>
<feOffset dx="8" dy="4"/>
<feGaussianBlur stdDeviation="4"/>
<feComposite in2="hardAlpha" operator="out"/>
<feColorMatrix type="matrix" values="0 0 0 0 0 0 0 0 0 0 0 0 0 0 0 0 0 0 0.25 0"/>
<feBlend mode="normal" in2="effect1_backgroundBlur_24_407" result="effect2_dropShadow_24_407"/>
<feBlend mode="normal" in="SourceGraphic" in2="effect2_dropShadow_24_407" result="shape"/>
</filter>
</defs>
</svg>
