<svg width="208" height="25" viewBox="0 0 208 25" fill="none" xmlns="http://www.w3.org/2000/svg">
    <path
        d="M18.752 5.28L15.392 7.008C14.624 5.728 12.512 4.512 10.08 4.512C6.944 4.512 5.44 5.824 5.44 7.488C5.44 9.44 7.744 9.984 10.432 10.304C15.104 10.88 19.456 12.096 19.456 17.44C19.456 22.432 15.04 24.576 10.048 24.576C5.472 24.576 1.952 23.168 0.288 19.072L3.808 17.248C4.8 19.712 7.392 20.8 10.112 20.8C12.768 20.8 15.264 19.872 15.264 17.44C15.264 15.328 13.056 14.464 10.08 14.144C5.504 13.6 1.28 12.384 1.28 7.36C1.28 2.752 5.824 0.863998 9.952 0.831999C13.44 0.831999 17.056 1.824 18.752 5.28ZM39.5883 18.272L42.4683 21.184C40.1643 23.456 37.1883 24.512 33.9563 24.512C25.6363 24.512 22.1163 18.784 22.0843 12.96C22.0523 7.104 25.8602 1.152 33.9563 1.152C36.9963 1.152 39.8763 2.304 42.1803 4.576L39.3643 7.296C37.8923 5.856 35.9083 5.184 33.9563 5.184C28.5483 5.184 26.2123 9.216 26.2443 12.96C26.2763 16.672 28.4203 20.544 33.9563 20.544C35.9083 20.544 38.1163 19.744 39.5883 18.272ZM64.7213 23.712V24H59.6973L53.1693 16.512H49.1053V24H44.8813V1.568C48.4333 1.568 51.9853 1.6 55.5373 1.6C60.8173 1.632 63.6013 5.152 63.6013 9.024C63.6013 12.096 62.1933 15.2 57.9373 16.064L64.7213 23.712ZM55.5373 5.536H49.1053V12.704H55.5373C58.2253 12.704 59.3773 10.912 59.3773 9.12C59.3773 7.328 58.1933 5.536 55.5373 5.536ZM76.971 1.152C84.683 1.152 88.523 7.072 88.459 12.928C88.395 18.72 84.843 24.512 76.971 24.512C69.099 24.512 65.451 18.848 65.451 12.96C65.451 7.072 69.227 1.152 76.971 1.152ZM76.971 4.992C71.691 4.992 69.515 9.248 69.611 13.024C69.707 16.704 71.691 20.64 76.971 20.64C82.251 20.64 84.235 16.672 84.299 12.992C84.363 9.216 82.251 4.992 76.971 4.992ZM91.568 1.6H95.792V20.096H107.312V24H91.568V1.6ZM110.287 1.6H114.511V20.096H126.031V24H110.287V1.6ZM154.994 24.032V7.776L147.698 17.504H146.866L139.73 7.744V24.032H135.506V1.632H140.37L147.378 11.264L154.386 1.632H159.218V24.032H154.994ZM179.897 19.84V24H163.129C163.129 16.544 163.129 9.056 163.129 1.6H179.897V5.696H167.321V10.848H179.449V14.784H167.321V19.84H179.897ZM201.795 24.96L201.251 24.736C201.123 23.072 200.579 21.312 199.651 19.488L200.067 18.464C201.059 19.584 201.763 20.544 202.179 21.344L205.347 13.6L197.923 17.088L201.379 6.016L202.723 6.336L200.099 14.688L207.939 10.944L203.395 21.824C204.291 21.568 205.539 21.376 206.979 21.312L206.563 22.336C204.643 22.976 203.043 23.84 201.795 24.96Z"
        fill="#FF0000" />
</svg>