<svg width="250" height="250" viewBox="0 0 250 250" fill="none" xmlns="http://www.w3.org/2000/svg">
    <path
        d="M95.0859 9L102.586 16.5C88.4219 32.75 80.5 53.5859 80.5 75.25C80.5 89.8359 84.25 104.414 90.9141 116.914L59.25 85.25C60.9141 82.75 61.75 79.8359 61.75 76.914C61.75 72.75 60.0859 68.5781 56.75 65.25C50.0859 58.5859 39.6641 58.5859 33 65.25C29.6641 68.5859 28 72.75 28 76.914C28 81.0781 29.6641 85.25 33 88.5781C38.8359 93.9922 47.1641 94.8281 53.4141 91.0781L93.4141 131.078L85.9141 138.578L106.328 158.992L113.828 151.492L154.664 192.328C153 194.828 152.164 197.742 152.164 200.664C152.164 204.828 153.828 209 157.164 212.328C163.828 218.992 174.25 218.992 180.914 212.328C183.828 208.992 185.5 204.828 185.5 200.664C185.5 196.5 183.836 192.328 180.5 189C175.086 183.586 166.75 182.75 160.086 186.5L128.422 154.836C160.508 171.5 200.508 167.75 228.836 143.172L236.75 150.672V129V109.422L216.336 129.836L223.422 136.922C195.086 161.086 154.258 162.336 124.258 141.922L127.594 138.586L107.18 117.75L103.844 121.5C94.2578 108.164 89.2578 91.914 89.2578 75.25C89.2578 55.664 96.3438 37.3359 108.844 22.3359L115.93 29.8359L136.344 9H118H95.0938H95.0859ZM236.75 121.086V129V138.586L228 129.836L236.75 121.086ZM39.25 82.75C37.5859 81.0859 36.75 79 36.75 76.914C36.75 74.8281 37.5859 72.75 39.25 71.0781C42.5859 67.7422 47.5859 67.7422 50.9141 71.0781C52.5781 72.7422 53.4141 74.8281 53.4141 76.914C53.4141 79 52.5781 81.0781 50.9141 82.75C48 86.0859 42.5781 86.0859 39.25 82.75ZM174.664 194.836C176.328 196.5 177.164 198.586 177.164 200.672C177.164 202.758 176.328 204.836 174.664 206.508C173.414 208.172 171.328 209.008 168.828 209.008C166.742 209.008 164.664 208.172 162.992 206.508C161.32 204.844 160.492 202.758 160.492 200.672C160.492 198.586 161.328 196.508 162.992 194.836C166.328 191.5 171.75 191.5 174.664 194.836ZM115.914 139L107.164 147.75L98.4141 139L107.164 130.25L115.914 139ZM124.664 9L115.914 17.75L107.164 9H115.914H124.664Z"
        fill="#383838" />
</svg>